<?xml version="1.0" encoding="UTF-8" standalone="no" ?>
<!DOCTYPE svg PUBLIC "-//W3C//DTD SVG 1.1//EN" "http://www.w3.org/Graphics/SVG/1.1/DTD/svg11.dtd">
<svg xmlns="http://www.w3.org/2000/svg" xmlns:xlink="http://www.w3.org/1999/xlink" version="1.1" width="500" height="500" viewBox="0 0 500 500" xml:space="preserve">
<desc>Created with Fabric.js 3.6.3</desc>
<defs>
</defs>
<g transform="matrix(-4.16 0 0 4.16 250 250)"  >
<g style=""   >
		<g transform="matrix(1 0 0 1 18.426567307692295 0.5)" clip-path="url(#CLIPPATH_1258)"  >
<clipPath id="CLIPPATH_1258" >
	<rect transform="matrix(1 0 0 1 -17.926567307692295 0)" x="-22.332932692307686" y="-34.662" rx="0" ry="0" width="44.66586538461537" height="69.324" />
</clipPath>
<polygon style="stroke: none; stroke-width: 1; stroke-dasharray: none; stroke-linecap: butt; stroke-dashoffset: 0; stroke-linejoin: miter; stroke-miterlimit: 4; fill: rgb(110,110,110); fill-rule: nonzero; opacity: 1;"  points="40.2595,34.662000000000006 0.0005000000000094929,-34.66199999999999 -30.030499999999993,17.047000000000004 -19.653499999999994,17.047000000000004 -0.000499999999995282,-16.787999999999997 24.758500000000012,25.840000000000003 -11.878499999999995,25.840000000000003 -11.878499999999995,25.870000000000005 -35.153499999999994,25.870000000000005 -40.259499999999996,34.662000000000006 " />
</g>
</g>
</g>
<g transform="matrix(1 0 0 1 288.615 345.34475000000003)" style=""  ><path fill="#ffffff" opacity="1" d="M-110.51-5.32L-116.83-11.67L-129.51-11.67L-129.51 9.50L-112.60 9.50L-110.51 7.42ZM-114.72 5.27L-125.27 5.27L-125.27-7.44L-118.95-7.44L-114.72-3.20Z"/><path fill="#ffffff" opacity="1" d="M-103.86-1.05L-103.86-3.17L-99.65-7.44L-93.30-7.44L-93.30-1.05ZM-103.86 9.50L-103.86 3.18L-93.30 3.18L-93.30 9.50L-89.09 9.50L-89.09-11.67L-101.77-11.67L-108.09-5.29L-108.09 9.50Z"/><path fill="#ffffff" opacity="1" d="M-81.83-1.05L-81.83-7.44L-71.28-7.44L-71.28-1.05ZM-67.07 9.50L-67.07 5.27L-69.16 3.18L-67.07 1.06L-67.07-9.52L-69.16-11.67L-86.07-11.67L-86.07 9.50L-81.83 9.50L-81.83 3.18L-75.51 3.18L-73.39 5.27L-71.28 7.42L-71.28 9.50Z"/><path fill="#ffffff" opacity="1" d="M-59.81 9.50L-59.81 1.06L-53.49 1.06L-49.25 5.27L-49.25 9.50L-45.05 9.50L-45.05 3.18L-49.25-1.05L-45.05-5.29L-45.05-11.67L-49.25-11.67L-49.25-7.41L-53.49-3.17L-59.81-3.17L-59.81-11.67L-64.05-11.67L-64.05 9.50Z"/><path fill="#ffffff" opacity="1" d="M-32.07 5.27L-34.19 5.27L-38.39 1.06L-38.39-11.67L-42.63-11.67L-42.63 3.18L-36.31 9.50L-29.95 9.50L-23.63 3.18L-23.63-11.67L-27.84-11.67L-27.84 1.06Z"/><path fill="#ffffff" opacity="1" d="M-2.94 9.50L-2.94 5.27L-16.67 5.27L-16.67 1.06L-4.00 1.06L-4.00-3.17L-16.67-3.17L-16.67-7.44L-2.94-7.44L-2.94-11.67L-20.91-11.67L-20.91 9.50Z"/><path fill="#ffffff" opacity="1" d="M16.69 9.50L18.78 7.42L18.78 3.18L14.57 3.18L14.57 5.27L4.02 5.27L4.02-7.44L14.57-7.44L14.57-5.32L18.78-5.32L18.78-9.52L16.69-11.67L1.87-11.67L-0.22-9.52L-0.22 7.42L1.87 9.50Z"/><path fill="#ffffff" opacity="1" d="M32.24 9.50L32.24-7.44L39.59-7.44L39.59-11.67L20.59-11.67L20.59-7.44L28.00-7.44L28.00 9.50Z"/><path fill="#ffffff" opacity="1" d="M45.94 5.27L45.94-7.44L56.50-7.44L56.50 5.27ZM58.62 9.50L60.70 7.42L60.70-9.52L58.62-11.67L43.79-11.67L41.71-9.52L41.71 7.42L43.79 9.50Z"/><path fill="#ffffff" opacity="1" d="M67.96-1.05L67.96-7.44L78.52-7.44L78.52-1.05ZM82.73 9.50L82.73 5.27L80.64 3.18L82.73 1.06L82.73-9.52L80.64-11.67L63.73-11.67L63.73 9.50L67.96 9.50L67.96 3.18L74.29 3.18L76.40 5.27L78.52 7.42L78.52 9.50Z"/></g></svg>